<?xml version="1.0" encoding="utf-8"?>
<svg viewBox="0 0 180.724 150" xmlns="http://www.w3.org/2000/svg" xmlns:bx="https://boxy-svg.com">
  <defs>
    <filter id="drop-shadow-filter-0" color-interpolation-filters="sRGB" x="-50%" y="-50%" width="200%" height="200%" bx:preset="drop-shadow 1 1 1 1 1 rgba(0,0,0,0.3)">
      <feGaussianBlur in="SourceAlpha" stdDeviation="1"/>
      <feOffset dx="1" dy="1"/>
      <feComponentTransfer result="offsetblur">
        <feFuncA id="spread-ctrl" type="linear" slope="2"/>
      </feComponentTransfer>
      <feFlood flood-color="rgba(0,0,0,0.3)"/>
      <feComposite in2="offsetblur" operator="in"/>
      <feMerge>
        <feMergeNode/>
        <feMergeNode in="SourceGraphic"/>
      </feMerge>
    </filter>
  </defs>
  <path d="M 2.097 32.246 L 2.097 127.298 L 17.266 127.298 L 17.266 121.782 L 8.007 121.782 L 8.007 37.762 L 17.266 37.762 L 17.266 32.246 L 2.097 32.246 Z M 32.128 99.62 C 29.173 99.62 27.105 101.688 27.105 104.643 C 27.105 107.598 29.173 109.667 32.128 109.667 C 35.083 109.667 37.152 107.598 37.152 104.643 C 37.152 101.688 35.083 99.62 32.128 99.62 Z M 52.02 99.62 C 49.065 99.62 46.997 101.688 46.997 104.643 C 46.997 107.598 49.065 109.667 52.02 109.667 C 54.975 109.667 57.044 107.598 57.044 104.643 C 57.044 101.688 54.975 99.62 52.02 99.62 Z M 71.912 99.62 C 68.957 99.62 66.889 101.688 66.889 104.643 C 66.889 107.598 68.957 109.667 71.912 109.667 C 74.867 109.667 76.936 107.598 76.936 104.643 C 76.936 101.688 74.867 99.62 71.912 99.62 Z M 113.688 99.915 C 110.536 102.082 106.793 103.166 103.05 103.166 C 99.208 103.166 96.255 101.884 94.382 99.718 C 91.23 96.074 91.23 90.164 91.23 85.14 C 91.23 80.806 91.23 74.995 94.283 71.449 C 96.647 68.691 99.996 67.903 103.05 67.903 C 106.596 67.903 110.24 68.986 113.195 70.858 L 116.544 65.243 C 112.506 62.682 107.778 61.402 103.05 61.402 C 96.746 61.402 92.018 63.766 88.964 67.312 C 84.335 72.631 84.335 80.018 84.335 85.14 C 84.335 90.952 84.335 98.536 89.063 103.855 C 92.122 107.298 96.746 109.667 103.05 109.667 C 108.073 109.667 113.097 108.189 117.234 105.431 L 113.688 99.915 Z M 153.471 99.915 C 150.319 102.082 146.576 103.166 142.833 103.166 C 138.992 103.166 136.038 101.884 134.165 99.718 C 131.013 96.074 131.013 90.164 131.013 85.14 C 131.013 80.806 131.013 74.995 134.067 71.449 C 136.431 68.691 139.78 67.903 142.833 67.903 C 146.379 67.903 150.024 68.986 152.979 70.858 L 156.328 65.243 C 152.289 62.682 147.561 61.402 142.833 61.402 C 136.529 61.402 131.801 63.766 128.748 67.312 C 124.118 72.631 124.118 80.018 124.118 85.14 C 124.118 90.952 124.118 98.536 128.846 103.855 C 131.906 107.298 136.529 109.667 142.833 109.667 C 147.857 109.667 152.88 108.189 157.017 105.431 L 153.471 99.915 Z M 161.941 32.246 L 161.941 37.762 L 171.2 37.762 L 171.2 121.782 L 161.941 121.782 L 161.941 127.298 L 177.11 127.298 L 177.11 32.246 L 161.941 32.246 Z" style="fill: rgb(133, 133, 133); filter: url('#drop-shadow-filter-0');"/>
</svg>